<?xml version="1.0" encoding="UTF-8"?>
<svg width="500px" height="500px" viewBox="0 0 500 500" version="1.1" xmlns="http://www.w3.org/2000/svg" xmlns:xlink="http://www.w3.org/1999/xlink">
    <!-- Generator: Sketch 61.2 (89653) - https://sketch.com -->
    <title>close</title>
    <desc>Created with Sketch.</desc>
    <g id="Page-1" stroke="none" stroke-width="1" fill="none" fill-rule="evenodd">
        <g id="close" fill="#000000">
            <path d="M500,250.2 C500,319.22 475.62,378.12 426.87,426.87 C378.1,475.62 319.22,500 250.2,500 C181.18,500 122.22,475.62 73.33,426.87 C24.44,378.12 0,319.23 0,250.2 C0,180.92 24.44,121.89 73.33,73.13 C122.22,24.38 181.18,0 250.2,0 C319.22,0 378.1,24.38 426.87,73.13 C475.62,121.9 500,180.92 500,250.2 Z M463.92,250.2 C463.92,191.11 443.07,140.73 401.38,99.01 C359.67,57.32 309.28,36.46 250.2,36.46 C191.12,36.46 140.71,57.31 99.02,99.01 C57.31,140.73 36.47,191.12 36.47,250.2 C36.47,309.02 57.32,359.29 99.02,400.98 C140.71,442.69 191.12,463.53 250.2,463.53 C309.28,463.53 359.67,442.68 401.38,400.98 C443.08,359.3 463.92,309.03 463.92,250.2 Z" id="Shape" fill-rule="nonzero"></path>
            <path d="M346.520076,124.488546 L375.511454,153.479924 L278.990546,249.999546 L375.511454,346.520076 L346.520076,375.511454 L249.999546,278.990546 L153.479924,375.511454 L124.488546,346.520076 L221.008546,249.999546 L124.488546,153.479924 L153.479924,124.488546 L249.999546,221.008546 L346.520076,124.488546 Z" id="Combined-Shape"></path>
        </g>
    </g>
</svg>