<?xml version="1.0" encoding="UTF-8"?>
<svg width="500px" height="500px" viewBox="0 0 500 500" version="1.1" xmlns="http://www.w3.org/2000/svg" xmlns:xlink="http://www.w3.org/1999/xlink">
    <!-- Generator: Sketch 61.2 (89653) - https://sketch.com -->
    <title>smiley</title>
    <desc>Created with Sketch.</desc>
    <g id="Page-1" stroke="none" stroke-width="1" fill="none" fill-rule="evenodd">
        <g id="smiley" fill="#000000" fill-rule="nonzero">
            <path d="M500,250.2 C500,319.22 475.62,378.12 426.87,426.87 C378.1,475.62 319.22,500 250.2,500 C181.18,500 122.22,475.62 73.33,426.87 C24.44,378.12 0,319.23 0,250.2 C0,180.92 24.44,121.89 73.33,73.13 C122.22,24.38 181.18,0 250.2,0 C319.22,0 378.1,24.38 426.87,73.13 C475.62,121.9 500,180.92 500,250.2 Z M463.92,250.2 C463.92,191.11 443.07,140.73 401.38,99.01 C359.67,57.32 309.28,36.46 250.2,36.46 C191.12,36.46 140.71,57.31 99.02,99.01 C57.31,140.73 36.47,191.12 36.47,250.2 C36.47,309.02 57.32,359.29 99.02,400.98 C140.71,442.69 191.12,463.53 250.2,463.53 C309.28,463.53 359.67,442.68 401.38,400.98 C443.08,359.3 463.92,309.03 463.92,250.2 Z M185.89,198.44 C185.89,207.07 182.8,214.51 176.67,220.78 C170.52,227.05 163.01,230.19 154.12,230.19 C145.49,230.19 138.05,227.05 131.78,220.78 C125.51,214.51 122.37,207.06 122.37,198.44 C122.37,189.55 125.51,182.04 131.78,175.89 C138.05,169.75 145.5,166.67 154.12,166.67 C163.01,166.67 170.52,169.76 176.67,175.89 C182.8,182.04 185.89,189.55 185.89,198.44 Z M134.9,392.95 L159.21,407.07 C179.86,369.42 210.19,350.6 250.19,350.6 C290.19,350.6 320.38,369.42 340.77,407.07 L365.49,392.95 C352.42,368.11 336.28,349.15 317.05,336.08 C297.84,323.01 275.55,316.47 250.19,316.47 C224.57,316.47 202.21,323.01 183.12,336.08 C164.05,349.15 147.98,368.11 134.9,392.95 Z M377.64,198.44 C377.64,207.07 374.57,214.51 368.44,220.78 C362.29,227.05 354.78,230.19 345.89,230.19 C337.26,230.19 329.8,227.05 323.53,220.78 C317.26,214.51 314.12,207.06 314.12,198.44 C314.12,189.55 317.26,182.04 323.53,175.89 C329.8,169.75 337.26,166.67 345.89,166.67 C354.78,166.67 362.29,169.76 368.44,175.89 C374.58,182.04 377.64,189.55 377.64,198.44 Z" id="Shape"></path>
        </g>
    </g>
</svg>