<?xml version="1.0" encoding="utf-8"?>
<!-- Generator: Adobe Illustrator 24.1.0, SVG Export Plug-In . SVG Version: 6.00 Build 0)  -->
<svg version="1.1" id="Layer_1" xmlns="http://www.w3.org/2000/svg" xmlns:xlink="http://www.w3.org/1999/xlink" x="0px" y="0px"
	 viewBox="0 0 600 600" style="enable-background:new 0 0 600 600;" xml:space="preserve">
<g>
	<path d="M550,300.2c0,69.02-24.38,127.92-73.13,176.67C428.1,525.62,369.22,550,300.2,550s-127.98-24.38-176.87-73.13
		S50,369.23,50,300.2c0-69.28,24.44-128.31,73.33-177.07C172.22,74.38,231.18,50,300.2,50s127.9,24.38,176.67,73.13
		C525.62,171.9,550,230.92,550,300.2z M513.92,300.2c0-59.09-20.85-109.47-62.54-151.19c-41.71-41.69-92.1-62.55-151.18-62.55
		s-109.49,20.85-151.18,62.55c-41.71,41.72-62.55,92.11-62.55,151.19c0,58.82,20.85,109.09,62.55,150.78
		c41.69,41.71,92.1,62.55,151.18,62.55s109.47-20.85,151.18-62.55C493.08,409.3,513.92,359.03,513.92,300.2z M235.89,248.44
		c0,8.63-3.09,16.07-9.22,22.34c-6.15,6.27-13.66,9.41-22.55,9.41c-8.63,0-16.07-3.14-22.34-9.41c-6.27-6.27-9.41-13.72-9.41-22.34
		c0-8.89,3.14-16.4,9.41-22.55c6.27-6.14,13.72-9.22,22.34-9.22c8.89,0,16.4,3.09,22.55,9.22
		C232.8,232.04,235.89,239.55,235.89,248.44z M184.9,380.59l24.31-14.12c20.65,37.65,50.98,56.47,90.98,56.47
		s70.19-18.82,90.58-56.47l24.72,14.12c-13.07,24.84-29.21,43.8-48.44,56.87c-19.21,13.07-41.5,19.61-66.86,19.61
		c-25.62,0-47.98-6.54-67.07-19.61C214.05,424.39,197.98,405.43,184.9,380.59z M427.64,248.44c0,8.63-3.07,16.07-9.2,22.34
		c-6.15,6.27-13.66,9.41-22.55,9.41c-8.63,0-16.09-3.14-22.36-9.41c-6.27-6.27-9.41-13.72-9.41-22.34c0-8.89,3.14-16.4,9.41-22.55
		c6.27-6.14,13.73-9.22,22.36-9.22c8.89,0,16.4,3.09,22.55,9.22C424.58,232.04,427.64,239.55,427.64,248.44z"/>
</g>
</svg>
